<svg width="215" height="77" viewBox="0 0 215 77" fill="none" xmlns="http://www.w3.org/2000/svg">
<g clip-path="url(#clip0)">
<path d="M29.3602 20.0185H33.3639C33.6308 20.0185 33.8977 19.7516 33.8977 19.4847C33.8977 19.2178 33.6308 18.9509 33.3639 18.9509H29.3602C29.0933 18.9509 28.8264 19.2178 28.8264 19.4847C28.8264 19.7516 29.0933 20.0185 29.3602 20.0185ZM31.3621 55.2512C30.1609 55.2512 29.2267 56.1854 29.2267 57.3865C29.2267 58.5876 30.1609 59.5218 31.3621 59.5218C32.5632 59.5218 33.4974 58.5876 33.4974 57.3865C33.3639 56.1854 32.4297 55.2512 31.3621 55.2512ZM21.0858 53.3828H41.6383V23.0881H21.0858V53.3828ZM86.8804 43.507C85.9462 43.507 85.012 43.7739 84.2112 44.4412C83.4105 45.1085 82.8766 45.9092 82.6097 46.9769C82.4763 47.5107 82.4763 47.9111 82.4763 48.178V51.114C82.4763 52.4486 82.8766 53.5163 83.6774 54.4505C84.4781 55.3847 85.5458 55.785 86.7469 55.785C88.215 55.785 89.4161 55.2512 90.2168 54.0501C91.0176 52.849 91.4179 51.381 91.4179 49.5126C91.4179 47.7776 91.0176 46.3096 90.2168 45.2419C89.4161 44.0408 88.3484 43.507 86.8804 43.507ZM158.814 43.2401C157.212 43.2401 156.011 43.9074 155.211 45.3754C154.543 46.5765 154.143 47.9111 154.143 49.646C154.143 51.2475 154.543 52.7155 155.211 53.7832C156.011 55.2512 157.212 55.9185 158.814 55.9185C160.282 55.9185 161.483 55.2512 162.284 53.7832C163.085 52.5821 163.352 51.2475 163.352 49.5126C163.352 47.7776 162.951 46.443 162.284 45.3754C161.483 43.9074 160.415 43.2401 158.814 43.2401ZM106.365 43.507C105.431 43.507 104.497 43.7739 103.696 44.4412C102.895 45.1085 102.361 45.9092 102.095 46.9769C101.961 47.5107 101.961 47.9111 101.961 48.178V51.114C101.961 52.4486 102.361 53.5163 103.162 54.4505C103.963 55.3847 105.031 55.785 106.232 55.785C107.7 55.785 108.901 55.2512 109.702 54.0501C110.502 52.849 110.903 51.381 110.903 49.5126C110.903 47.7776 110.502 46.3096 109.702 45.2419C108.901 44.0408 107.833 43.507 106.365 43.507ZM65.6606 37.1011C65.3937 38.1687 64.9933 39.6367 64.4595 41.772L62.4576 48.178H69.1305L66.9952 41.772C66.5948 41.1048 66.1945 39.5033 65.6606 37.1011ZM188.708 42.9732C187.374 42.9732 186.44 43.507 185.505 44.5746C184.838 45.3754 184.438 46.443 184.304 47.6442H192.579C192.579 46.443 192.312 45.5089 191.778 44.5746C191.244 43.6405 190.176 42.9732 188.708 42.9732ZM83.0101 25.4903C83.0101 25.3568 83.0101 25.0899 83.0101 24.9565V23.7553C81.4086 23.7553 79.8071 24.0223 79.8071 25.4903C79.8071 26.4245 80.341 26.8249 81.1417 26.8249C82.0759 26.8249 82.7432 26.1576 83.0101 25.4903ZM61.5234 19.7516C61.2565 18.9509 61.1231 18.1501 60.8562 17.3494C60.7227 18.0167 60.4558 18.9509 60.1889 19.7516L59.2547 22.8211H62.4576L61.5234 19.7516ZM192.445 18.8174C195.381 18.8174 196.449 21.2197 196.449 23.2215C196.449 23.6219 196.449 24.0223 196.316 24.1557H190.176C190.176 25.7572 191.511 26.5579 192.979 26.5579C194.047 26.5579 194.847 26.4245 195.515 26.1576L195.915 27.7591C195.114 28.1594 194.047 28.2929 192.712 28.2929C189.776 28.2929 188.041 26.4245 188.041 23.6219C187.908 21.2197 189.509 18.8174 192.445 18.8174ZM155.744 19.0843L155.878 20.4189C156.278 19.7516 157.346 18.8174 158.814 18.8174C160.415 18.8174 162.017 19.8851 162.017 22.6877V28.1594H159.748V22.9546C159.748 21.62 159.214 20.6858 158.013 20.6858C157.079 20.6858 156.412 21.3531 156.145 22.0204C156.011 22.1539 156.011 22.5542 156.011 22.6877V28.026H153.743V21.62C153.743 20.5524 153.743 19.7516 153.609 18.9509H155.744V19.0843ZM131.455 18.8174C134.391 18.8174 135.459 21.2197 135.459 23.2215C135.459 23.6219 135.459 24.0223 135.325 24.1557H129.186C129.186 25.7572 130.521 26.5579 131.989 26.5579C133.057 26.5579 133.857 26.4245 134.525 26.1576L134.925 27.7591C134.124 28.1594 133.057 28.2929 131.722 28.2929C128.786 28.2929 127.051 26.4245 127.051 23.6219C127.051 21.2197 128.519 18.8174 131.455 18.8174ZM121.98 14.8137H124.248V28.1594H121.98V14.8137ZM103.696 20.5524C102.762 20.5524 101.828 20.8193 101.294 21.2197L100.893 19.7516C101.561 19.3513 102.762 18.9509 104.23 18.9509C107.166 18.9509 107.967 20.8193 107.967 22.8211V26.1576C107.967 26.9583 107.967 27.7591 108.1 28.2929H105.965L105.831 27.2252C105.298 27.8925 104.363 28.4263 103.162 28.4263C101.294 28.4263 100.226 27.0918 100.226 25.7572C100.226 23.4884 102.228 22.2873 105.698 22.2873V22.1539C105.564 21.4866 105.298 20.5524 103.696 20.5524ZM90.0834 15.2141C90.8841 15.2141 91.4179 15.7479 91.4179 16.4152C91.4179 17.0825 90.8841 17.6163 90.0834 17.6163C89.2826 17.6163 88.7488 17.0825 88.7488 16.4152C88.7488 15.7479 89.2826 15.2141 90.0834 15.2141ZM91.151 19.0843V28.2929H88.8822V19.0843H91.151ZM59.3881 15.6145H62.3242L66.4614 28.2929H63.9257L62.7246 24.6895H58.7208L57.6532 28.2929H55.2509L59.3881 15.6145ZM44.0405 57.52C44.0405 59.7888 42.1721 61.5237 40.0368 61.5237H22.6873C20.4185 61.5237 18.6836 59.6553 18.6836 57.52V18.9509C18.6836 16.6821 20.552 14.9472 22.6873 14.9472H40.0368C42.3056 14.9472 44.0405 16.8156 44.0405 18.9509V57.52ZM71.9331 58.4542L69.6644 51.2475H61.6569L59.5216 58.4542H55.3844L63.2584 33.8981H68.1963L76.2038 58.4542H71.9331ZM72.8673 28.1594H70.5986L67.2621 18.9509H69.7978L71.2659 23.6219C71.5328 24.4226 71.6662 25.2234 71.9331 25.8907C72.0666 25.0899 72.3335 24.4226 72.6004 23.6219L74.0685 18.9509H76.4707L72.8673 28.1594ZM77.5383 25.7572C77.5383 23.4884 79.5402 22.2873 83.0101 22.2873V22.1539C83.0101 21.62 82.7432 20.5524 81.1417 20.5524C80.2075 20.5524 79.2733 20.8193 78.7395 21.2197L78.3391 19.7516C79.0064 19.3513 80.2075 18.9509 81.6755 18.9509C84.6116 18.9509 85.4123 20.8193 85.4123 22.8211V26.1576C85.4123 26.9583 85.4123 27.7591 85.5458 28.2929H83.4105L83.277 27.2252C82.7432 27.8925 81.809 28.4263 80.6079 28.4263C78.606 28.4263 77.5383 27.0918 77.5383 25.7572ZM93.0194 56.4523C91.5514 58.0538 89.683 58.7211 87.5477 58.7211C85.1454 58.7211 83.5439 57.9204 82.4763 56.1854V65.5274H78.4725V46.5765C78.4725 44.7081 78.4726 42.7062 78.3391 40.7044H81.809L82.0759 43.507H82.2094C83.5439 41.3717 85.5458 40.304 88.2149 40.304C90.3503 40.304 92.0852 41.1048 93.4198 42.8397C94.7544 44.4412 95.5551 46.71 95.5551 49.3791C95.4217 52.3152 94.6209 54.7174 93.0194 56.4523ZM97.1566 28.1594H94.7544V14.8137H97.0231V28.1594H97.1566ZM112.504 56.4523C111.036 58.0538 109.168 58.7211 107.032 58.7211C104.63 58.7211 103.029 57.9204 101.961 56.1854V65.5274H97.9573V46.5765C97.9573 44.7081 97.9574 42.7062 97.8239 40.7044H101.294L101.561 43.507H101.694C103.029 41.3717 105.031 40.304 107.7 40.304C109.835 40.304 111.57 41.1048 112.905 42.8397C114.373 44.4412 115.04 46.71 115.04 49.3791C115.04 52.3152 114.106 54.7174 112.504 56.4523ZM115.173 28.4263C113.972 28.4263 112.905 28.026 112.237 26.8249L112.104 28.1594H110.102C110.102 27.4921 110.235 26.5579 110.235 25.6237V14.8137H112.504V20.2855C113.038 19.3513 114.106 18.8174 115.44 18.8174C117.709 18.8174 119.311 20.6858 119.311 23.4884C119.444 26.8249 117.309 28.4263 115.173 28.4263ZM135.059 56.7192C133.457 58.1873 131.188 58.8546 128.386 58.8546C125.716 58.8546 123.581 58.3207 121.98 57.3865L122.914 54.0501C124.649 55.1178 126.517 55.5181 128.653 55.5181C130.121 55.5181 131.322 55.1178 132.122 54.4505C132.923 53.7832 133.324 52.849 133.324 51.7813C133.324 50.8471 132.923 49.9129 132.256 49.2456C131.589 48.5784 130.388 47.9111 128.919 47.3772C124.649 45.7758 122.514 43.3735 122.514 40.304C122.514 38.3022 123.314 36.5672 124.782 35.3661C126.25 34.0315 128.386 33.4977 130.788 33.4977C133.057 33.4977 134.925 33.8981 136.393 34.6988L135.459 37.9018C134.124 37.1011 132.523 36.8341 130.788 36.8341C129.453 36.8341 128.252 37.2345 127.585 37.9018C126.918 38.5691 126.651 39.2364 126.651 40.1706C126.651 41.1048 127.051 41.9055 127.718 42.5728C128.386 43.1066 129.587 43.7739 131.322 44.4412C133.457 45.2419 135.059 46.3096 135.993 47.3772C136.927 48.5784 137.461 49.9129 137.461 51.6479C137.327 53.6497 136.527 55.3847 135.059 56.7192ZM148.938 43.6404H144.534V52.3152C144.534 54.4505 145.335 55.6516 146.803 55.6516C147.47 55.6516 148.137 55.6516 148.538 55.5181L148.671 58.4542C147.87 58.7211 146.936 58.8546 145.602 58.8546C144 58.8546 142.799 58.3207 141.998 57.3865C141.064 56.4523 140.664 54.8508 140.664 52.5821V43.6404H138.128V40.7044H140.664V37.5014L144.534 36.3003V40.7044H148.938V43.6404ZM146.803 28.4263C144.267 28.4263 142.265 26.6914 142.265 23.7553C142.265 20.6858 144.267 18.9509 146.936 18.9509C149.605 18.9509 151.474 20.8193 151.474 23.6219C151.474 26.9583 149.072 28.4263 146.803 28.4263ZM165.22 56.1854C163.618 57.9204 161.35 58.8546 158.681 58.8546C156.011 58.8546 154.009 58.0538 152.408 56.3189C150.807 54.5839 150.139 52.4486 150.139 49.7795C150.139 46.9769 150.94 44.7081 152.541 42.9732C154.143 41.2382 156.278 40.304 158.947 40.304C161.617 40.304 163.618 41.1048 165.22 42.8397C166.688 44.5746 167.489 46.71 167.489 49.3791C167.489 52.1817 166.688 54.4505 165.22 56.1854ZM169.224 19.0843H170.558V17.3494L172.827 16.6821V19.0843H174.962V20.8193H172.827V24.823C172.827 25.8907 173.094 26.5579 174.028 26.5579C174.428 26.5579 174.695 26.5579 174.962 26.4245V28.1594C174.562 28.2929 174.028 28.4263 173.227 28.4263C172.427 28.4263 171.626 28.1594 171.226 27.6256C170.692 27.0918 170.558 26.291 170.558 25.0899V20.8193H169.224V19.0843ZM179.366 44.1743C178.966 44.0408 178.566 44.0408 178.165 44.0408C176.831 44.0408 175.763 44.5746 174.962 45.6423C174.295 46.5765 174.028 47.7776 174.028 49.1122V58.4542H170.024V46.3096C170.024 44.3077 170.024 42.4393 169.891 40.7044H173.361L173.494 44.0408H173.628C174.028 42.8397 174.695 41.9055 175.63 41.2382C176.564 40.5709 177.498 40.304 178.432 40.304C178.833 40.304 179.099 40.304 179.366 40.304V44.1743ZM180.034 22.6877V28.1594H177.765V14.8137H180.034V20.2855C180.301 19.8851 180.701 19.4847 181.235 19.2178C181.769 18.9509 182.302 18.8174 182.836 18.8174C184.438 18.8174 186.039 19.8851 186.039 22.8211V28.1594H183.771V22.9546C183.771 21.62 183.237 20.6858 182.036 20.6858C181.101 20.6858 180.434 21.3531 180.167 22.0204C180.034 22.2873 180.034 22.4208 180.034 22.6877ZM196.316 50.5802H184.438C184.438 52.3152 185.105 53.6497 186.173 54.5839C187.107 55.3847 188.442 55.785 190.043 55.785C191.778 55.785 193.379 55.5181 194.847 54.9843L195.515 57.7869C193.78 58.5876 191.911 58.8546 189.509 58.8546C186.707 58.8546 184.571 58.0538 182.97 56.4523C181.368 54.8508 180.568 52.7155 180.568 49.9129C180.568 47.2438 181.368 44.975 182.703 43.2401C184.304 41.3717 186.306 40.4375 188.975 40.4375C191.511 40.4375 193.513 41.3717 194.847 43.2401C195.915 44.7081 196.449 46.5765 196.449 48.8453C196.449 49.3791 196.316 50.0464 196.316 50.5802ZM114.773 20.6858C113.839 20.6858 112.905 21.3531 112.771 22.4208C112.771 22.5542 112.638 22.8211 112.638 23.0881V24.5561C112.638 24.6895 112.638 24.9565 112.638 25.0899C112.905 26.0241 113.705 26.6914 114.64 26.6914C116.108 26.6914 116.908 25.4903 116.908 23.6219C117.042 22.0204 116.241 20.6858 114.773 20.6858ZM131.322 20.4189C129.854 20.4189 129.32 21.7535 129.186 22.6877H133.19C133.324 21.8869 132.923 20.4189 131.322 20.4189ZM146.936 20.5524C145.335 20.5524 144.667 22.1539 144.667 23.6219C144.667 25.3568 145.602 26.6914 146.936 26.6914C148.271 26.6914 149.205 25.3568 149.205 23.6219C149.072 22.1539 148.404 20.5524 146.936 20.5524ZM102.361 25.4903C102.361 26.4245 102.895 26.8249 103.696 26.8249C104.63 26.8249 105.298 26.1576 105.564 25.6237C105.564 25.4903 105.564 25.2234 105.564 25.0899V23.8888C103.963 23.7553 102.361 24.0223 102.361 25.4903ZM192.312 20.4189C190.844 20.4189 190.31 21.7535 190.176 22.6877H194.18C194.18 21.8869 193.78 20.4189 192.312 20.4189Z" fill="#5754D5"/>
<path d="M204.724 76.4709H10.2762C4.53755 76.4709 0 71.7999 0 66.1947V10.2762C0 4.671 4.67101 0 10.2762 0H204.724C210.462 0 215 4.671 215 10.2762V66.1947C215 71.7999 210.462 76.4709 204.724 76.4709ZM10.2762 2.66914C6.13904 2.66914 2.66915 6.13903 2.66915 10.2762V66.1947C2.66915 70.4654 6.13904 73.8018 10.2762 73.8018H204.724C208.994 73.8018 212.331 70.3319 212.331 66.1947V10.2762C212.331 6.00557 208.861 2.66914 204.724 2.66914H10.2762Z" fill="#5754D5"/>
</g>
<defs>
<clipPath id="clip0">
<rect width="215" height="76.4709" fill="white"/>
</clipPath>
</defs>
</svg>
