<svg width="611" height="588" viewBox="0 0 611 588" fill="none" xmlns="http://www.w3.org/2000/svg">
<path d="M586.556 154.738C594.687 109.313 591.603 63.8881 552.207 32.6235C514.072 2.34033 455.609 2.48054 409.062 0.938336C351.861 -0.884264 294.239 3.46194 238.018 14.5377C186.565 24.7723 133.709 36.6893 86.8826 61.0841C28.2789 91.3673 -18.9685 152.214 9.21169 220.351C21.5493 250.354 46.7853 274.048 57.1601 304.892C79.0314 369.945 28.9799 427.006 28.1387 490.797C26.4563 599.032 180.817 598.331 254.141 580.946C311.203 567.487 362.656 536.222 419.297 523.043C467.386 511.827 536.364 537.624 571.274 490.797C593.145 461.495 583.191 419.435 570.573 388.451C555.151 350.317 545.337 316.669 553.188 275.45C560.899 234.371 579.125 195.957 586.556 154.738Z" fill="#5754D5" fill-opacity="0.3"/>
<path d="M155.44 89.1242C159.226 81.273 167.217 75.9454 176.611 75.9454C178.714 75.9454 180.676 76.2258 182.499 76.6464C183.34 62.346 195.257 50.8496 209.978 50.8496C222.035 50.8496 232.27 58.5606 236.055 69.356C238.859 68.7952 241.803 68.5148 244.888 68.5148C261.291 68.5148 275.732 76.7866 283.443 89.1242H155.44Z" fill="white"/>
<path d="M482.106 244.606C485.892 236.755 493.883 231.427 503.277 231.427C505.38 231.427 507.343 231.708 509.165 232.128C510.006 217.688 522.064 206.191 536.644 206.191C548.702 206.191 558.936 213.902 562.722 224.698C565.526 224.137 568.47 223.856 571.554 223.856C587.958 223.856 602.399 232.128 610.11 244.466H482.106V244.606Z" fill="white"/>
<path d="M219.372 174.085C223.157 166.234 231.148 160.907 240.542 160.907C242.645 160.907 244.608 161.187 246.43 161.608C247.271 147.167 259.329 135.671 273.909 135.671C285.967 135.671 296.201 143.382 299.986 154.177C302.79 153.616 305.735 153.336 308.819 153.336C325.222 153.336 339.663 161.608 347.374 173.945H219.372V174.085Z" fill="white"/>
<path d="M7.5293 182.918C10.8941 175.908 18.0443 171.141 26.3161 171.141C28.1387 171.141 29.9613 171.422 31.6437 171.842C32.3447 158.944 43.1402 148.709 56.1788 148.709C66.9742 148.709 76.0872 155.579 79.3118 165.253C81.8354 164.832 84.4993 164.552 87.1631 164.552C101.884 164.552 114.642 171.982 121.512 182.918H7.5293Z" fill="white"/>
<path d="M501.174 104.967H454.347V487.292H501.174V104.967Z" fill="#A3CDFF"/>
<path d="M454.346 104.967H260.73V487.292H454.346V104.967Z" fill="white"/>
<path d="M455.188 64.1686H255.543V105.107H455.188V64.1686Z" fill="#00579E"/>
<path d="M506.501 64.1686H455.188V105.107H506.501V64.1686Z" fill="#004680"/>
<path d="M512.109 487.432H242.785V501.873H512.109V487.432Z" fill="#00579E"/>
<path d="M512.249 487.432H454.347V501.873H512.249V487.432Z" fill="#004680"/>
<path d="M352.421 387.049H288.069V472.852H352.421V387.049Z" fill="#00579E"/>
<g opacity="0.2">
<path opacity="0.2" d="M292.696 391.395H352.421V387.049H288.069V472.992H292.696V391.395Z" fill="black"/>
</g>
<path d="M426.307 387.049H361.955V472.852H426.307V387.049Z" fill="#00579E"/>
<g opacity="0.2">
<path opacity="0.2" d="M366.582 391.395H426.307V387.049H361.955V472.992H366.582V391.395Z" fill="black"/>
</g>
<path d="M339.803 305.593H300.688V380.6H339.803V305.593Z" fill="#00579E"/>
<g opacity="0.2">
<path opacity="0.2" d="M303.772 308.817H339.803V305.593H300.688V380.74H303.772V308.817Z" fill="black"/>
</g>
<path d="M339.803 211.519H300.688V286.525H339.803V211.519Z" fill="#00579E"/>
<g opacity="0.2">
<path opacity="0.2" d="M303.772 214.743H339.803V211.519H300.688V286.525H303.772V214.743Z" fill="black"/>
</g>
<path d="M339.803 117.445H300.688V192.452H339.803V117.445Z" fill="#00579E"/>
<g opacity="0.2">
<path opacity="0.2" d="M303.772 120.669H339.803V117.445H300.688V192.452H303.772V120.669Z" fill="black"/>
</g>
<path d="M413.689 305.593H374.573V380.6H413.689V305.593Z" fill="#00579E"/>
<g opacity="0.2">
<path opacity="0.2" d="M377.797 308.817H413.689V305.593H374.573V380.74H377.797V308.817Z" fill="black"/>
</g>
<path d="M413.689 211.519H374.573V286.525H413.689V211.519Z" fill="#00579E"/>
<g opacity="0.2">
<path opacity="0.2" d="M377.797 214.743H413.689V211.519H374.573V286.525H377.797V214.743Z" fill="black"/>
</g>
<path d="M413.689 117.445H374.573V192.452H413.689V117.445Z" fill="#00579E"/>
<g opacity="0.2">
<path opacity="0.2" d="M377.797 120.669H413.689V117.445H374.573V192.452H377.797V120.669Z" fill="black"/>
</g>
<g opacity="0.1">
<g opacity="0.1">
<path opacity="0.1" d="M289.752 104.967H280.078V487.292H289.752V104.967Z" fill="black"/>
</g>
<g opacity="0.1">
<path opacity="0.1" d="M363.637 104.967H353.963V487.292H363.637V104.967Z" fill="black"/>
</g>
<g opacity="0.1">
<path opacity="0.1" d="M437.663 104.967H427.989V487.292H437.663V104.967Z" fill="black"/>
</g>
</g>
<path d="M288.069 104.967H278.396V487.292H288.069V104.967Z" fill="#BFDCFF"/>
<path d="M362.095 104.967H352.421V487.292H362.095V104.967Z" fill="#BFDCFF"/>
<path d="M435.98 104.967H426.306V487.292H435.98V104.967Z" fill="#BFDCFF"/>
<path d="M501.314 192.452H255.543V198.901H501.314V192.452Z" fill="#6BB1FF"/>
<path d="M454.346 192.452H255.543V198.901H454.346V192.452Z" fill="#A3CDFF"/>
<path d="M431.214 159.224H283.302V163.991H431.214V159.224Z" fill="#A3CDFF"/>
<path d="M295.781 162.449H294.238V195.396H295.781V162.449Z" fill="#A3CDFF"/>
<path d="M348.356 162.449H346.813V195.396H348.356V162.449Z" fill="#A3CDFF"/>
<path d="M337.84 162.449H336.298V195.396H337.84V162.449Z" fill="#A3CDFF"/>
<path d="M327.325 162.449H325.783V195.396H327.325V162.449Z" fill="#A3CDFF"/>
<path d="M316.81 162.449H315.268V195.396H316.81V162.449Z" fill="#A3CDFF"/>
<path d="M306.295 162.449H304.753V195.396H306.295V162.449Z" fill="#A3CDFF"/>
<path d="M369.105 162.449H367.562V195.396H369.105V162.449Z" fill="#A3CDFF"/>
<path d="M421.68 162.449H420.138V195.396H421.68V162.449Z" fill="#A3CDFF"/>
<path d="M411.164 162.449H409.623V195.396H411.164V162.449Z" fill="#A3CDFF"/>
<path d="M400.65 162.449H399.107V195.396H400.65V162.449Z" fill="#A3CDFF"/>
<path d="M390.135 162.449H388.593V195.396H390.135V162.449Z" fill="#A3CDFF"/>
<path d="M379.62 162.449H378.078V195.396H379.62V162.449Z" fill="#A3CDFF"/>
<path d="M501.734 286.526H255.963V292.975H501.734V286.526Z" fill="#6BB1FF"/>
<path d="M454.767 286.526H255.963V292.975H454.767V286.526Z" fill="#A3CDFF"/>
<path d="M431.634 253.298H283.723V258.065H431.634V253.298Z" fill="#A3CDFF"/>
<path d="M296.341 256.523H294.799V289.47H296.341V256.523Z" fill="#A3CDFF"/>
<path d="M348.916 256.523H347.374V289.47H348.916V256.523Z" fill="#A3CDFF"/>
<path d="M338.401 256.523H336.859V289.47H338.401V256.523Z" fill="#A3CDFF"/>
<path d="M327.886 256.523H326.344V289.47H327.886V256.523Z" fill="#A3CDFF"/>
<path d="M317.371 256.523H315.829V289.47H317.371V256.523Z" fill="#A3CDFF"/>
<path d="M306.856 256.523H305.313V289.47H306.856V256.523Z" fill="#A3CDFF"/>
<path d="M369.666 256.523H368.124V289.47H369.666V256.523Z" fill="#A3CDFF"/>
<path d="M422.24 256.523H420.698V289.47H422.24V256.523Z" fill="#A3CDFF"/>
<path d="M411.726 256.523H410.184V289.47H411.726V256.523Z" fill="#A3CDFF"/>
<path d="M401.211 256.523H399.668V289.47H401.211V256.523Z" fill="#A3CDFF"/>
<path d="M390.695 256.523H389.153V289.47H390.695V256.523Z" fill="#A3CDFF"/>
<path d="M380.181 256.523H378.639V289.47H380.181V256.523Z" fill="#A3CDFF"/>
<path d="M501.314 380.74H255.543V387.189H501.314V380.74Z" fill="#6BB1FF"/>
<path d="M454.346 380.74H255.543V387.189H454.346V380.74Z" fill="#A3CDFF"/>
<path d="M431.214 347.372H283.302V352.139H431.214V347.372Z" fill="#A3CDFF"/>
<path d="M295.781 350.597H294.238V383.544H295.781V350.597Z" fill="#A3CDFF"/>
<path d="M348.356 350.597H346.813V383.544H348.356V350.597Z" fill="#A3CDFF"/>
<path d="M337.84 350.597H336.298V383.544H337.84V350.597Z" fill="#A3CDFF"/>
<path d="M327.325 350.597H325.783V383.544H327.325V350.597Z" fill="#A3CDFF"/>
<path d="M316.81 350.597H315.268V383.544H316.81V350.597Z" fill="#A3CDFF"/>
<path d="M306.295 350.597H304.753V383.544H306.295V350.597Z" fill="#A3CDFF"/>
<path d="M369.105 350.597H367.562V383.544H369.105V350.597Z" fill="#A3CDFF"/>
<path d="M421.68 350.597H420.138V383.544H421.68V350.597Z" fill="#A3CDFF"/>
<path d="M411.164 350.597H409.623V383.544H411.164V350.597Z" fill="#A3CDFF"/>
<path d="M400.65 350.597H399.107V383.544H400.65V350.597Z" fill="#A3CDFF"/>
<path d="M390.135 350.597H388.593V383.544H390.135V350.597Z" fill="#A3CDFF"/>
<path d="M379.62 350.597H378.078V383.544H379.62V350.597Z" fill="#A3CDFF"/>
<path d="M435.98 472.992H271.806V487.432H435.98V472.992Z" fill="#004680"/>
<g opacity="0.2">
<path opacity="0.2" d="M435.981 472.992H426.307V487.432H435.981V472.992Z" fill="black"/>
</g>
<path d="M152.496 326.062H64.5908V370.926H152.496V326.062Z" fill="#FE9B88"/>
<path d="M218.671 225.258L185.443 238.437C179.274 240.821 172.405 237.876 170.021 231.708C167.638 225.539 170.582 218.669 176.751 216.286L209.978 203.107C216.147 200.723 223.017 203.668 225.4 209.836C227.784 216.005 224.699 222.875 218.671 225.258Z" fill="#FE9B88"/>
<path d="M180.396 240.4C180.396 266.056 182.078 293.816 170.722 317.65C152.917 354.943 88.4247 370.786 59.1229 338.82C44.2617 322.557 36.6909 300.265 36.6909 278.394C36.6909 233.53 55.6179 197.078 78.8911 197.078C102.164 197.078 180.396 195.536 180.396 240.4Z" fill="#FE9B88"/>
<g opacity="0.1">
<path opacity="0.1" d="M152.496 360.972L83.5176 343.587L152.496 339.521V360.972Z" fill="black"/>
</g>
<path d="M185.443 343.868H85.7606C79.4516 343.868 74.2642 338.68 74.2642 332.371V118.426C74.2642 112.117 79.4516 106.93 85.7606 106.93H185.443C191.752 106.93 196.939 112.117 196.939 118.426V332.511C196.939 338.82 191.752 343.868 185.443 343.868Z" fill="white"/>
<path d="M185.443 106.93H85.7606C79.4516 106.93 74.2642 112.117 74.2642 118.426V332.512C74.2642 338.821 79.4516 344.008 85.7606 344.008H185.443C191.752 344.008 196.939 338.821 196.939 332.512V118.426C196.939 112.117 191.752 106.93 185.443 106.93ZM192.453 332.512C192.453 336.437 189.369 339.522 185.443 339.522H85.7606C81.835 339.522 78.7506 336.437 78.7506 332.512V118.426C78.7506 114.5 81.835 111.416 85.7606 111.416H104.407C104.407 115.342 107.632 118.426 111.417 118.426H159.646C163.572 118.426 166.656 115.201 166.656 111.416H185.303C189.228 111.416 192.313 114.5 192.313 118.426V332.512H192.453Z" fill="#00579E"/>
<path d="M164.413 315.687H106.791C97.9583 315.687 90.8081 308.537 90.8081 299.705C90.8081 290.872 97.9583 283.722 106.791 283.722H164.413C173.246 283.722 180.396 290.872 180.396 299.705C180.396 308.537 173.246 315.687 164.413 315.687Z" fill="#F42B56"/>
<path d="M110.621 297.887H108.471V296.317H114.741V297.887H112.601V303.317H110.621V297.887ZM118.911 303.457C118.171 303.457 117.504 303.3 116.911 302.987C116.324 302.673 115.861 302.24 115.521 301.687C115.188 301.133 115.021 300.51 115.021 299.817C115.021 299.123 115.188 298.5 115.521 297.947C115.861 297.393 116.324 296.96 116.911 296.647C117.504 296.333 118.171 296.177 118.911 296.177C119.651 296.177 120.314 296.333 120.901 296.647C121.494 296.96 121.958 297.393 122.291 297.947C122.631 298.5 122.801 299.123 122.801 299.817C122.801 300.51 122.631 301.133 122.291 301.687C121.958 302.24 121.494 302.673 120.901 302.987C120.314 303.3 119.651 303.457 118.911 303.457ZM118.911 301.817C119.264 301.817 119.584 301.733 119.871 301.567C120.158 301.4 120.384 301.167 120.551 300.867C120.718 300.56 120.801 300.21 120.801 299.817C120.801 299.423 120.718 299.077 120.551 298.777C120.384 298.47 120.158 298.233 119.871 298.067C119.584 297.9 119.264 297.817 118.911 297.817C118.558 297.817 118.238 297.9 117.951 298.067C117.664 298.233 117.438 298.47 117.271 298.777C117.104 299.077 117.021 299.423 117.021 299.817C117.021 300.21 117.104 300.56 117.271 300.867C117.438 301.167 117.664 301.4 117.951 301.567C118.238 301.733 118.558 301.817 118.911 301.817ZM130.278 303.457C129.538 303.457 128.872 303.3 128.278 302.987C127.692 302.673 127.228 302.24 126.888 301.687C126.555 301.133 126.388 300.51 126.388 299.817C126.388 299.123 126.555 298.5 126.888 297.947C127.228 297.393 127.692 296.96 128.278 296.647C128.872 296.333 129.538 296.177 130.278 296.177C131.018 296.177 131.682 296.333 132.268 296.647C132.862 296.96 133.325 297.393 133.658 297.947C133.998 298.5 134.168 299.123 134.168 299.817C134.168 300.51 133.998 301.133 133.658 301.687C133.325 302.24 132.862 302.673 132.268 302.987C131.682 303.3 131.018 303.457 130.278 303.457ZM130.278 301.817C130.632 301.817 130.952 301.733 131.238 301.567C131.525 301.4 131.752 301.167 131.918 300.867C132.085 300.56 132.168 300.21 132.168 299.817C132.168 299.423 132.085 299.077 131.918 298.777C131.752 298.47 131.525 298.233 131.238 298.067C130.952 297.9 130.632 297.817 130.278 297.817C129.925 297.817 129.605 297.9 129.318 298.067C129.032 298.233 128.805 298.47 128.638 298.777C128.472 299.077 128.388 299.423 128.388 299.817C128.388 300.21 128.472 300.56 128.638 300.867C128.805 301.167 129.032 301.4 129.318 301.567C129.605 301.733 129.925 301.817 130.278 301.817ZM138.265 301.457H137.185V303.317H135.205V296.317H138.405C139.039 296.317 139.589 296.423 140.055 296.637C140.522 296.843 140.882 297.143 141.135 297.537C141.389 297.923 141.515 298.38 141.515 298.907C141.515 299.413 141.395 299.857 141.155 300.237C140.922 300.61 140.585 300.903 140.145 301.117L141.655 303.317H139.535L138.265 301.457ZM139.515 298.907C139.515 298.58 139.412 298.327 139.205 298.147C138.999 297.967 138.692 297.877 138.285 297.877H137.185V299.927H138.285C138.692 299.927 138.999 299.84 139.205 299.667C139.412 299.487 139.515 299.233 139.515 298.907ZM142.608 296.317H145.918C146.684 296.317 147.364 296.46 147.958 296.747C148.551 297.033 149.011 297.44 149.338 297.967C149.664 298.493 149.828 299.11 149.828 299.817C149.828 300.523 149.664 301.14 149.338 301.667C149.011 302.193 148.551 302.6 147.958 302.887C147.364 303.173 146.684 303.317 145.918 303.317H142.608V296.317ZM145.838 301.737C146.438 301.737 146.918 301.567 147.278 301.227C147.644 300.887 147.828 300.417 147.828 299.817C147.828 299.217 147.644 298.747 147.278 298.407C146.918 298.067 146.438 297.897 145.838 297.897H144.588V301.737H145.838ZM156.489 301.787V303.317H150.869V296.317H156.359V297.847H152.829V299.027H155.939V300.507H152.829V301.787H156.489ZM160.648 301.457H159.568V303.317H157.588V296.317H160.788C161.421 296.317 161.971 296.423 162.438 296.637C162.905 296.843 163.265 297.143 163.518 297.537C163.771 297.923 163.898 298.38 163.898 298.907C163.898 299.413 163.778 299.857 163.538 300.237C163.305 300.61 162.968 300.903 162.528 301.117L164.038 303.317H161.918L160.648 301.457ZM161.898 298.907C161.898 298.58 161.795 298.327 161.588 298.147C161.381 297.967 161.075 297.877 160.668 297.877H159.568V299.927H160.668C161.075 299.927 161.381 299.84 161.588 299.667C161.795 299.487 161.898 299.233 161.898 298.907Z" fill="white"/>
<path d="M134.971 147.027C116.325 147.307 101.323 162.589 101.323 181.376C101.323 181.656 101.323 182.077 101.323 182.497C101.463 188.666 103.146 194.695 106.09 200.162L135.532 253.859L164.834 201.424C168.058 195.536 169.741 189.087 169.741 182.357C170.021 163.01 154.179 146.746 134.971 147.027ZM135.672 193.152C128.522 193.152 122.634 187.264 122.634 180.114C122.634 172.964 128.522 167.075 135.672 167.075C142.822 167.075 148.711 172.964 148.711 180.114C148.711 187.404 142.822 193.152 135.672 193.152Z" fill="#F42B56"/>
<path d="M158.805 255.121H112.679C111.978 255.121 111.417 254.56 111.417 253.859C111.417 253.158 111.978 252.597 112.679 252.597H158.805C159.506 252.597 160.067 253.158 160.067 253.859C160.067 254.56 159.506 255.121 158.805 255.121Z" fill="#F42B56"/>
<path d="M147.169 264.094H124.036C123.335 264.094 122.774 263.533 122.774 262.832C122.774 262.131 123.335 261.57 124.036 261.57H147.169C147.87 261.57 148.431 262.131 148.431 262.832C148.571 263.533 148.01 264.094 147.169 264.094Z" fill="#F42B56"/>
<path d="M94.3131 210.117C89.4061 216.846 74.4047 238.016 73.7037 238.858C72.1615 240.961 71.8811 240.68 70.4791 238.577C69.4977 237.035 68.7967 235.493 67.8153 233.951C66.2731 231.567 64.5907 229.184 62.9083 226.8C61.3661 224.557 59.6837 222.174 58.1415 219.931C57.5807 219.23 53.2345 213.622 53.5149 213.061C60.8053 202.686 63.4691 199.321 71.1801 191.751C77.2087 185.862 84.4991 183.479 91.3689 188.526C98.0985 193.854 99.3603 203.387 94.3131 210.117Z" fill="#FE9B88"/>
<path d="M202.688 264.795L192.173 269.001C186.004 271.384 179.134 268.44 176.751 262.271C174.367 256.102 177.312 249.233 183.48 246.849L193.995 242.643C200.164 240.26 207.034 243.204 209.417 249.373C211.801 255.401 208.856 262.271 202.688 264.795Z" fill="#FE9B88"/>
<path d="M202.688 297.041L192.173 301.247C186.004 303.63 179.134 300.686 176.751 294.517C174.367 288.348 177.312 281.478 183.48 279.095L193.995 274.889C200.164 272.505 207.034 275.45 209.417 281.619C211.801 287.787 208.856 294.657 202.688 297.041Z" fill="#FE9B88"/>
<path d="M202.688 329.427L192.173 333.633C186.004 336.016 179.134 333.072 176.751 326.903C174.367 320.734 177.312 313.865 183.48 311.481L193.995 307.275C200.164 304.892 207.034 307.836 209.417 314.005C211.801 320.033 208.856 327.043 202.688 329.427Z" fill="#FE9B88"/>
<path d="M155.581 370.786H56.5996V384.525H155.581V370.786Z" fill="white"/>
<path d="M158.805 384.526H47.9072V588.377H158.805V384.526Z" fill="#00579E"/>
<path d="M148.15 397.144H132.308V383.965C132.308 379.618 135.813 376.113 140.159 376.113C144.505 376.113 148.01 379.618 148.01 383.965V397.144H148.15Z" fill="#00579E"/>
<g opacity="0.1">
<path opacity="0.1" d="M203.529 437.66C192.313 419.574 172.965 405.835 152.356 401.208L163.011 326.202C163.992 319.051 159.085 312.462 151.935 311.481C144.785 310.499 138.196 315.406 137.214 322.556L125.858 402.049C107.352 409.2 101.183 430.65 98.5189 442.847C93.8923 464.298 96.9767 478.879 104.267 489.113L105.95 588.515L180.256 588.234L183.62 510.003C206.893 496.684 218.81 462.475 203.529 437.66Z" fill="black"/>
</g>
<path d="M183.06 511.406L171.563 510.004C142.822 506.64 115.763 495.844 118.988 448.737C120.11 432.614 125.017 399.947 160.487 399.807C183.34 399.667 207.314 411.023 222.175 428.969C247.972 460.093 224.699 516.313 183.06 511.406Z" fill="#FE9B88"/>
<path d="M140.439 324.38V467.524C140.439 474.674 146.327 480.563 153.477 480.563C160.628 480.563 166.516 474.674 166.516 467.524V324.38C166.516 317.23 160.628 311.341 153.477 311.341C146.187 311.341 140.439 317.089 140.439 324.38Z" fill="#FE9B88"/>
<path d="M131.252 529.85H212.848V489.613H131.252V529.85Z" fill="#FE9B88"/>
<path d="M123.6 530.387H215.571V517.629H123.6V530.387Z" fill="white"/>
<path d="M120.597 598.338H223.644V530.341H120.597L120.597 598.338Z" fill="#00579E"/>
<g opacity="0.1">
<path opacity="0.1" d="M585.995 555.149H344.711C338.402 555.149 333.354 550.102 333.354 543.793C333.354 537.484 338.402 532.437 344.711 532.437H585.995C592.304 532.437 597.351 537.484 597.351 543.793C597.351 550.102 592.304 555.149 585.995 555.149Z" fill="black"/>
</g>
<path d="M492.341 423.221H438.784V449.298H492.341V423.221Z" fill="#FFD24A"/>
<path d="M500.192 423.221H492.481V449.298H500.192V423.221Z" fill="#B79D3D"/>
<path d="M389.434 474.254H402.333V484.068H389.434C386.771 484.068 384.527 481.825 384.527 479.161C384.527 476.497 386.63 474.254 389.434 474.254Z" fill="#A17E00"/>
<path d="M412.427 532.437C412.427 540.148 412.848 546.597 405.697 546.877C405.557 546.877 399.248 546.877 399.108 546.877C391.817 546.877 385.789 540.428 385.789 532.437C385.789 524.445 391.677 517.996 399.108 517.996C406.538 517.996 412.427 524.445 412.427 532.437Z" fill="#00579E"/>
<path d="M405.417 546.877C412.773 546.877 418.736 540.412 418.736 532.437C418.736 524.461 412.773 517.996 405.417 517.996C398.061 517.996 392.098 524.461 392.098 532.437C392.098 540.412 398.061 546.877 405.417 546.877Z" fill="#004680"/>
<path d="M513.932 498.368L467.526 483.787L489.958 449.298H408.782L389.995 483.787L360.413 498.368V532.436H511.268L513.932 525.286V498.368Z" fill="#B79D3D"/>
<path d="M568.329 498.087L548.421 483.787L534.12 449.298H476.498L461.357 483.787L418.596 498.087V532.436H568.329V498.087Z" fill="#FFD24A"/>
<path d="M455.889 482.526L467.525 454.906H411.445L396.444 482.526H455.889Z" fill="#00579E"/>
<path d="M447.197 546.877C447.337 546.877 453.225 546.877 453.365 546.877C460.375 546.597 460.515 540.148 460.515 532.437H434.018C434.018 540.428 439.906 546.877 447.197 546.877Z" fill="#004680"/>
<path d="M453.365 546.877C460.721 546.877 466.684 540.412 466.684 532.437C466.684 524.461 460.721 517.996 453.365 517.996C446.01 517.996 440.046 524.461 440.046 532.437C440.046 540.412 446.01 546.877 453.365 546.877Z" fill="#00579E"/>
<path d="M459.534 532.437C459.534 536.082 456.73 539.166 453.366 539.166C450.001 539.166 447.197 536.222 447.197 532.437C447.197 528.791 450.001 525.707 453.366 525.707C456.87 525.707 459.534 528.791 459.534 532.437Z" fill="#BFDCFF"/>
<path d="M532.859 546.877C532.999 546.877 538.887 546.877 539.027 546.877C546.038 546.597 546.178 540.148 546.178 532.437H519.68C519.539 540.428 525.428 546.877 532.859 546.877Z" fill="#004680"/>
<path d="M539.027 546.877C546.383 546.877 552.346 540.412 552.346 532.437C552.346 524.461 546.383 517.996 539.027 517.996C531.672 517.996 525.708 524.461 525.708 532.437C525.708 540.412 531.672 546.877 539.027 546.877Z" fill="#00579E"/>
<path d="M545.197 532.437C545.197 536.082 542.393 539.166 539.028 539.166C535.663 539.166 532.859 536.222 532.859 532.437C532.859 528.791 535.663 525.707 539.028 525.707C542.393 525.707 545.197 528.791 545.197 532.437Z" fill="#BFDCFF"/>
<path d="M429.671 533.418H362.516C359.571 533.418 357.188 531.035 357.188 528.09C357.188 525.146 359.571 522.763 362.516 522.763H429.671C432.615 522.763 434.999 525.146 434.999 528.09C434.999 531.035 432.615 533.418 429.671 533.418Z" fill="#00579E"/>
<path d="M505.099 454.906H479.162L467.525 482.526H505.099V454.906Z" fill="#00579E"/>
<path d="M509.445 482.526H542.672L531.877 454.906H509.445V482.526Z" fill="#00579E"/>
<path d="M473.274 484.068H460.375V474.254H473.274C475.937 474.254 478.181 476.497 478.181 479.161C478.181 481.825 475.937 484.068 473.274 484.068Z" fill="#B79D3D"/>
<path d="M401.772 520.099H370.086C367.142 520.099 364.899 517.715 364.899 514.911C364.899 511.967 367.282 509.724 370.086 509.724H401.772C404.716 509.724 406.959 512.107 406.959 514.911C407.099 517.715 404.716 520.099 401.772 520.099Z" fill="#FFD24A"/>
<path d="M418.595 507.341H407.659C405.136 507.341 403.033 505.238 403.033 502.714C403.033 500.191 405.136 498.088 407.659 498.088H418.595V507.341Z" fill="#00579E"/>
<path d="M418.596 498.088H419.998C422.522 498.088 424.625 500.191 424.625 502.714C424.625 505.238 422.522 507.341 419.998 507.341H418.596V498.088Z" fill="#004680"/>
<path d="M568.329 507.341H565.104C562.581 507.341 560.478 505.238 560.478 502.714C560.478 500.191 562.581 498.088 565.104 498.088H568.329V507.341Z" fill="#00579E"/>
<path d="M360.413 507.341H371.348C373.872 507.341 375.975 505.238 375.975 502.714C375.975 500.191 373.872 498.088 371.348 498.088H360.413V507.341Z" fill="#00579E"/>
<path d="M480.003 498.088H470.75V507.341H480.003V498.088Z" fill="#004680"/>
<path d="M516.876 498.088H507.622V507.341H516.876V498.088Z" fill="#004680"/>
<path d="M489.256 507.341H480.003V516.594H489.256V507.341Z" fill="#004680"/>
<path d="M498.369 498.088H489.116V507.341H498.369V498.088Z" fill="#004680"/>
<path d="M507.623 507.341H498.37V516.594H507.623V507.341Z" fill="#004680"/>
<path d="M451.963 425.604H442.71V434.857H451.963V425.604Z" fill="#004680"/>
<path d="M488.696 425.604H479.443V434.857H488.696V425.604Z" fill="#004680"/>
<path d="M461.076 434.857H451.823V444.111H461.076V434.857Z" fill="#004680"/>
<path d="M470.329 425.604H461.076V434.857H470.329V425.604Z" fill="#004680"/>
<path d="M479.443 434.857H470.189V444.111H479.443V434.857Z" fill="#004680"/>
<g opacity="0.1">
<path opacity="0.1" d="M429.672 522.903H418.596V533.558H429.672C432.616 533.558 435 531.175 435 528.231C435 525.287 432.616 522.903 429.672 522.903Z" fill="black"/>
</g>
<path d="M560.198 522.903H568.33C571.274 522.903 573.657 525.287 573.657 528.231C573.657 531.175 571.274 533.558 568.33 533.558H560.198C557.254 533.558 554.87 531.175 554.87 528.231C554.87 525.287 557.254 522.903 560.198 522.903Z" fill="#00579E"/>
</svg>
