<svg width="25" height="25" viewBox="0 0 25 25" fill="none" xmlns="http://www.w3.org/2000/svg">
<ellipse cx="12.5" cy="12.2415" rx="12.5" ry="12.2415" fill="#F42B56"/>
<path d="M15.44 12.176C16.304 11.712 16.88 10.864 16.88 9.712C16.88 7.936 15.44 6.8 12.752 6.8H7.504V18H13.072C15.952 18 17.456 16.88 17.456 14.96C17.456 13.504 16.64 12.56 15.44 12.176ZM12.528 8.432C13.968 8.432 14.784 8.944 14.784 9.984C14.784 11.008 13.968 11.52 12.528 11.52H9.584V8.432H12.528ZM12.944 16.368H9.584V13.136H12.944C14.512 13.136 15.36 13.632 15.36 14.752C15.36 15.872 14.512 16.368 12.944 16.368Z" fill="white"/>
</svg>
