<svg width="215" height="77" viewBox="0 0 215 77" fill="none" xmlns="http://www.w3.org/2000/svg">
<g clip-path="url(#clip0)">
<path d="M204.307 76.4683H10.6934C4.78057 76.4683 0 71.3971 0 65.1248V11.3435C0 5.0712 4.78057 0 10.6934 0H204.432C210.345 0 215.126 5.0712 215.126 11.3435V65.1248C215 71.3971 210.219 76.4683 204.307 76.4683ZM10.6934 2.66905C6.16442 2.66905 2.51609 6.53917 2.51609 11.3435V65.1248C2.51609 69.9291 6.16442 73.7992 10.6934 73.7992H204.432C208.961 73.7992 212.61 69.9291 212.61 65.1248V11.3435C212.61 6.53917 208.961 2.66905 204.432 2.66905H10.6934Z" fill="#5754D5"/>
<path d="M71.4573 22.2865H70.0734C70.0734 22.0196 69.9476 21.4858 69.696 20.5516H67.6831C67.4315 21.4858 67.3057 22.1531 67.3057 22.2865H65.9219C65.9219 22.1531 66.2993 21.2189 66.9283 19.2171C67.6831 17.3488 67.9348 16.2812 67.9348 16.1477H69.5702C69.5702 16.2812 69.9476 17.3488 70.5767 19.2171C71.0799 21.0854 71.4573 22.1531 71.4573 22.2865ZM69.4444 19.6175C68.9412 18.016 68.6896 17.0819 68.6896 16.9484H68.5638C68.5638 17.0819 68.3122 18.016 67.809 19.6175H69.4444Z" fill="#5754D5"/>
<path d="M77.2441 22.2865H76.1118C76.1118 22.1531 75.7344 21.4858 74.8538 20.2847C73.9732 18.9502 73.47 18.1495 73.3441 17.6157H73.2183C73.3441 18.2829 73.3441 18.9502 73.3441 19.484C73.3441 20.2847 73.3441 21.2189 73.3441 22.2865H72.2119C72.2119 21.3523 72.3377 20.2847 72.3377 19.0837C72.3377 17.8826 72.3377 16.9484 72.2119 16.1477H73.5958C73.5958 16.2812 73.9732 16.9484 74.728 18.1495C75.4828 19.3506 75.986 20.2847 76.1118 20.6851H76.2376C76.1118 20.0178 76.1118 19.3506 76.1118 18.8168C76.1118 18.016 76.1118 17.0819 76.1118 16.1477H77.2441C77.2441 16.9484 77.2441 17.8826 77.2441 19.0837C77.1183 20.2847 77.1183 21.3523 77.2441 22.2865Z" fill="#5754D5"/>
<path d="M83.6604 18.9503C83.6604 19.8845 83.4088 20.6852 82.9056 21.3525C82.4024 22.0197 81.6476 22.4201 80.6411 22.4201C80.2637 22.4201 79.6347 22.4201 78.8799 22.4201C78.8799 21.4859 78.8799 20.4183 78.8799 19.2172C78.8799 18.0161 78.8799 17.082 78.8799 16.2812H79.6347C79.7605 16.2812 80.0121 16.2812 80.2637 16.2812C80.5153 16.2812 80.6411 16.2812 80.7669 16.2812C81.8992 16.2812 82.654 16.5482 83.1572 17.082C83.4088 17.4823 83.6604 18.1496 83.6604 18.9503ZM82.4024 19.2172C82.4024 18.5499 82.2766 18.1496 81.8992 17.7492C81.5218 17.3489 81.0186 17.082 80.3895 17.082C80.2637 17.082 80.1379 17.082 79.8863 17.082C79.8863 17.7492 79.8863 18.4165 79.8863 19.0838C79.8863 19.8845 79.8863 20.5517 79.8863 21.3525C80.1379 21.3525 80.2637 21.3525 80.5153 21.3525C81.1444 21.3525 81.6476 21.0855 81.8992 20.6852C82.2766 20.2848 82.4024 19.751 82.4024 19.2172Z" fill="#5754D5"/>
<path d="M89.6988 22.2869H88.4407C88.0633 21.2193 87.8117 20.4186 87.6859 20.1517C87.5601 19.8848 87.1827 19.7513 86.8052 19.7513C86.6794 19.7513 86.4278 19.7513 86.302 19.7513C86.302 20.552 86.302 21.3527 86.302 22.1535H85.0439C85.0439 21.2193 85.0439 20.1517 85.0439 18.9506C85.0439 17.7495 85.0439 16.8154 85.0439 16.0146H85.7988C85.9246 16.0146 86.0504 16.0146 86.302 16.0146C86.5536 16.0146 86.8052 16.0146 87.0568 16.0146C88.4407 16.0146 89.0698 16.5485 89.0698 17.4826C89.0698 18.2833 88.6923 18.8172 87.9375 19.0841V19.2175C88.1891 19.351 88.4407 19.6179 88.6923 20.0182C88.9439 20.4186 89.1956 21.2193 89.6988 22.2869ZM87.9375 17.883C87.9375 17.2157 87.5601 16.9488 86.8052 16.9488C86.5536 16.9488 86.302 16.9488 86.0504 16.9488C86.0504 17.4826 86.0504 18.0164 86.0504 18.8172C86.1762 18.8172 86.302 18.8172 86.4278 18.8172C87.4343 18.9506 87.9375 18.6837 87.9375 17.883Z" fill="#5754D5"/>
<path d="M95.9893 19.0837C95.9893 20.0179 95.7377 20.8186 95.1087 21.4859C94.6054 22.1531 93.8506 22.42 93.0958 22.42C92.341 22.42 91.712 22.1531 91.0829 21.4859C90.5797 20.952 90.3281 20.1513 90.3281 19.2172C90.3281 18.283 90.5797 17.4823 91.2087 16.815C91.712 16.1478 92.4668 15.8809 93.2216 15.8809C93.9764 15.8809 94.6054 16.1478 95.2345 16.815C95.7377 17.4823 95.9893 18.1495 95.9893 19.0837ZM94.8571 19.2172C94.8571 18.5499 94.7313 18.0161 94.3538 17.6157C93.9764 17.2154 93.599 16.9485 93.2216 16.9485C92.8442 16.9485 92.4668 17.2154 92.0894 17.6157C91.8378 18.0161 91.5862 18.5499 91.5862 19.2172C91.5862 19.8844 91.712 20.4182 92.0894 20.8186C92.4668 21.219 92.8442 21.4859 93.2216 21.4859C93.599 21.4859 93.9764 21.219 94.3538 20.8186C94.6055 20.4182 94.8571 19.8844 94.8571 19.2172Z" fill="#5754D5"/>
<path d="M98.5052 22.2865H97.2471C97.2471 21.3523 97.2471 20.2847 97.2471 19.0837C97.2471 17.8826 97.2471 16.9484 97.2471 16.1477H98.5052C98.5052 16.9484 98.5052 17.8826 98.5052 19.0837C98.5052 20.2847 98.5052 21.3523 98.5052 22.2865Z" fill="#5754D5"/>
<path d="M105.047 18.9503C105.047 19.8845 104.796 20.6852 104.292 21.3525C103.789 22.0197 103.034 22.4201 102.028 22.4201C101.525 22.4201 101.021 22.4201 100.267 22.4201C100.267 21.4859 100.267 20.4183 100.267 19.2172C100.267 18.0161 100.267 17.082 100.267 16.2812H101.021C101.147 16.2812 101.399 16.2812 101.65 16.2812C101.902 16.2812 102.028 16.2812 102.154 16.2812C103.286 16.2812 104.041 16.5482 104.544 17.082C104.796 17.4823 105.047 18.1496 105.047 18.9503ZM103.789 19.2172C103.789 18.5499 103.663 18.1496 103.286 17.7492C102.909 17.3489 102.405 17.082 101.776 17.082C101.65 17.082 101.525 17.082 101.273 17.082C101.273 17.7492 101.273 18.4165 101.273 19.0838C101.273 19.8845 101.273 20.5517 101.273 21.3525C101.525 21.3525 101.65 21.3525 101.902 21.3525C102.531 21.3525 103.034 21.0855 103.286 20.6852C103.663 20.2848 103.789 19.751 103.789 19.2172Z" fill="#5754D5"/>
<path d="M113.602 22.2865H112.218C112.218 22.0196 112.092 21.4858 111.841 20.5516H109.828C109.576 21.4858 109.45 22.1531 109.45 22.2865H108.066C108.066 22.1531 108.444 21.2189 109.073 19.2171C109.828 17.3488 110.079 16.2812 110.079 16.1477H111.715C111.715 16.2812 112.092 17.3488 112.721 19.2171C113.35 21.0854 113.602 22.1531 113.602 22.2865ZM111.589 19.6175C111.086 18.016 110.834 17.0819 110.834 16.9484H110.708C110.708 17.0819 110.457 18.016 109.953 19.6175H111.589Z" fill="#5754D5"/>
<path d="M118.76 17.7492C118.76 18.5499 118.508 19.0838 118.005 19.4841C117.502 19.8845 116.873 20.0179 116.118 20.0179C115.992 20.0179 115.866 20.0179 115.866 20.0179C115.866 20.5517 115.866 21.3525 115.866 22.4201H114.608C114.608 21.4859 114.608 20.4183 114.608 19.2172C114.608 18.0161 114.608 17.082 114.608 16.2812H115.363C115.489 16.2812 115.741 16.2812 115.992 16.2812C116.244 16.2812 116.621 16.2812 116.747 16.2812C117.25 16.2812 117.754 16.4147 118.131 16.6816C118.634 16.8151 118.76 17.2154 118.76 17.7492ZM117.628 18.0161C117.628 17.3489 117.25 16.9485 116.37 16.9485C116.118 16.9485 115.992 16.9485 115.741 17.082C115.741 17.6158 115.741 18.4165 115.741 19.0838C115.866 19.0838 115.866 19.0838 115.992 19.0838C117.125 19.0838 117.628 18.6834 117.628 18.0161Z" fill="#5754D5"/>
<path d="M124.169 17.7492C124.169 18.5499 123.918 19.0838 123.414 19.4841C122.911 19.8845 122.282 20.0179 121.527 20.0179C121.401 20.0179 121.276 20.0179 121.276 20.0179C121.276 20.5517 121.276 21.3525 121.276 22.4201H120.018C120.018 21.4859 120.018 20.4183 120.018 19.2172C120.018 18.0161 120.018 17.082 120.018 16.2812H120.772C120.898 16.2812 121.15 16.2812 121.401 16.2812C121.653 16.2812 122.03 16.2812 122.156 16.2812C122.66 16.2812 123.163 16.4147 123.54 16.6816C123.918 16.8151 124.169 17.2154 124.169 17.7492ZM123.037 18.0161C123.037 17.3489 122.66 16.9485 121.779 16.9485C121.527 16.9485 121.401 16.9485 121.15 17.082C121.15 17.6158 121.15 18.4165 121.15 19.0838C121.276 19.0838 121.276 19.0838 121.401 19.0838C122.534 19.0838 123.037 18.6834 123.037 18.0161Z" fill="#5754D5"/>
<path d="M132.976 19.0837C132.976 20.0179 132.724 20.8186 132.095 21.4859C131.592 22.1531 130.837 22.42 130.082 22.42C129.327 22.42 128.698 22.1531 128.069 21.4859C127.566 20.952 127.314 20.1513 127.314 19.2172C127.314 18.283 127.566 17.4823 128.195 16.815C128.698 16.1478 129.453 15.8809 130.208 15.8809C130.963 15.8809 131.592 16.1478 132.221 16.815C132.598 17.4823 132.976 18.1495 132.976 19.0837ZM131.718 19.2172C131.718 18.5499 131.592 18.0161 131.214 17.6157C130.837 17.2154 130.46 16.9485 130.082 16.9485C129.705 16.9485 129.327 17.2154 128.95 17.6157C128.698 18.0161 128.447 18.5499 128.447 19.2172C128.447 19.8844 128.573 20.4182 128.95 20.8186C129.327 21.219 129.705 21.4859 130.082 21.4859C130.46 21.4859 130.837 21.219 131.214 20.8186C131.592 20.4182 131.718 19.8844 131.718 19.2172Z" fill="#5754D5"/>
<path d="M139.015 22.2865H137.882C137.882 22.1531 137.505 21.4858 136.624 20.2847C135.744 18.9502 135.24 18.1495 135.115 17.6157H134.989C135.115 18.2829 135.115 18.9502 135.115 19.484C135.115 20.2847 135.115 21.2189 135.115 22.2865H133.982C133.982 21.3523 134.108 20.2847 134.108 19.0837C134.108 17.8826 134.108 16.9484 133.982 16.1477H135.366C135.366 16.2812 135.744 16.9484 136.499 18.1495C137.253 19.3506 137.757 20.2847 137.882 20.6851H138.008C137.882 20.0178 137.882 19.3506 137.882 18.8168C137.882 18.016 137.882 17.0819 137.882 16.1477H139.015C139.015 16.9484 139.015 17.8826 139.015 19.0837C138.889 20.2847 138.889 21.3523 139.015 22.2865Z" fill="#5754D5"/>
<path d="M86.3017 42.0376C86.3017 45.107 85.421 47.5091 83.7856 49.3775C81.8985 51.5127 79.2566 52.5803 76.2373 52.5803C73.218 52.5803 70.7019 51.5127 68.6891 49.244C66.5504 47.1088 65.5439 44.3063 65.5439 41.1034C65.5439 37.9005 66.5504 35.098 68.6891 32.9628C70.8277 30.8275 73.3438 29.6265 76.2373 29.6265C77.747 29.6265 79.1308 29.8934 80.5147 30.5606C81.8985 31.2279 82.905 32.0286 83.7856 32.9628L81.7727 34.9646C80.3889 33.2297 78.5018 32.429 76.1115 32.429C73.9728 32.429 72.0858 33.2297 70.4503 34.8311C68.8149 36.4325 68.06 38.5678 68.06 41.1034C68.06 43.639 68.8149 45.7742 70.4503 47.3757C72.0858 48.9771 73.9728 49.7778 76.1115 49.7778C78.376 49.7778 80.3889 48.9771 81.8985 47.3757C82.905 46.308 83.534 44.8401 83.6598 42.9717H76.1115V40.3027H86.1759C86.3017 40.9699 86.3017 41.5037 86.3017 42.0376Z" fill="#5754D5"/>
<path d="M89.4465 38.9682C90.8303 37.5002 92.5916 36.6995 94.6045 36.6995C96.7432 36.6995 98.5045 37.5002 99.7625 38.9682C101.146 40.4361 101.775 42.4379 101.775 44.7066C101.775 46.9753 101.146 48.8437 99.7625 50.4451C98.3787 51.9131 96.6174 52.7138 94.6045 52.7138C92.4658 52.7138 90.7045 51.9131 89.4465 50.4451C88.0626 48.9771 87.4336 46.9753 87.4336 44.7066C87.4336 42.3045 88.0626 40.4361 89.4465 38.9682ZM91.4594 48.5768C92.34 49.5109 93.4722 50.0447 94.7303 50.0447C95.9884 50.0447 97.1206 49.5109 98.0012 48.5768C98.8819 47.6426 99.3851 46.3081 99.3851 44.7066C99.3851 43.1052 98.8819 41.7707 98.0012 40.8365C97.1206 39.9023 95.9884 39.3685 94.7303 39.3685C93.4722 39.3685 92.34 39.9023 91.4594 40.8365C90.5787 41.7707 90.0755 43.1052 90.0755 44.7066C90.0755 46.3081 90.5787 47.5091 91.4594 48.5768Z" fill="#5754D5"/>
<path d="M104.921 38.9682C106.305 37.5002 108.066 36.6995 110.079 36.6995C112.218 36.6995 113.979 37.5002 115.237 38.9682C116.621 40.4361 117.25 42.4379 117.25 44.7066C117.25 46.9753 116.621 48.8437 115.237 50.4451C113.853 51.9131 112.092 52.7138 110.079 52.7138C107.94 52.7138 106.179 51.9131 104.921 50.4451C103.663 48.9771 102.908 46.9753 102.908 44.7066C102.782 42.3045 103.537 40.4361 104.921 38.9682ZM106.808 48.5768C107.689 49.5109 108.821 50.0447 110.079 50.0447C111.337 50.0447 112.469 49.5109 113.35 48.5768C114.23 47.6426 114.734 46.3081 114.734 44.7066C114.734 43.1052 114.23 41.7707 113.35 40.8365C112.469 39.9023 111.337 39.3685 110.079 39.3685C108.821 39.3685 107.689 39.9023 106.808 40.8365C105.927 41.7707 105.424 43.1052 105.424 44.7066C105.55 46.3081 105.927 47.5091 106.808 48.5768Z" fill="#5754D5"/>
<path d="M125.176 59.253C123.54 59.253 122.156 58.8526 121.024 57.9185C120.018 56.9843 119.263 56.0501 118.76 54.849L121.15 53.7814C121.402 54.5821 121.905 55.2494 122.66 55.7832C123.414 56.317 124.169 56.5839 125.176 56.5839C126.685 56.5839 127.818 56.1836 128.572 55.2494C129.453 54.3152 129.83 53.1141 129.83 51.5127V50.0447H129.705C129.201 50.712 128.572 51.3793 127.692 51.9131C126.811 52.4469 125.931 52.7138 124.798 52.7138C122.911 52.7138 121.402 51.9131 120.018 50.4451C118.634 48.9771 118.005 46.9753 118.005 44.7066C118.005 42.4379 118.634 40.5696 120.018 38.9682C121.402 37.5002 122.911 36.6995 124.798 36.6995C125.805 36.6995 126.811 36.9664 127.692 37.3667C128.572 37.9005 129.201 38.4343 129.705 39.2351H129.83V37.0998H132.347V51.3793C132.347 53.9149 131.592 55.9167 130.208 57.2512C128.95 58.5857 127.189 59.253 125.176 59.253ZM125.427 50.0447C126.685 50.0447 127.692 49.5109 128.572 48.5768C129.453 47.6426 129.83 46.3081 129.83 44.5732C129.83 42.9717 129.453 41.6372 128.572 40.5696C127.692 39.6354 126.685 39.1016 125.427 39.1016C124.169 39.1016 123.163 39.6354 122.282 40.5696C121.402 41.5038 120.898 42.8383 120.898 44.4397C120.898 46.0412 121.402 47.3757 122.282 48.3099C123.163 49.5109 124.169 50.0447 125.427 50.0447Z" fill="#5754D5"/>
<path d="M137.63 52.1801H134.988V30.1604H137.63V52.1801Z" fill="#5754D5"/>
<path d="M146.436 52.5803C144.298 52.5803 142.537 51.7795 141.278 50.3116C139.895 48.8436 139.266 46.8418 139.266 44.5731C139.266 42.4378 139.895 40.5695 141.153 38.9681C142.411 37.3666 144.046 36.5659 146.185 36.5659C148.324 36.5659 149.959 37.2332 151.217 38.7012C152.475 40.1691 153.104 42.0375 153.104 44.5731V45.1069H141.908C142.033 46.5749 142.411 47.776 143.291 48.7101C144.172 49.6443 145.178 50.0447 146.311 50.0447C148.198 50.0447 149.456 49.2439 150.211 47.509L152.601 48.5767C152.098 49.7777 151.343 50.7119 150.336 51.5126C149.204 52.1799 147.946 52.5803 146.436 52.5803ZM150.211 42.8382C150.211 42.0375 149.833 41.1033 149.078 40.436C148.449 39.6353 147.443 39.235 146.059 39.235C145.053 39.235 144.172 39.5019 143.543 40.1691C142.788 40.8364 142.285 41.6371 142.033 42.8382H150.211Z" fill="#5754D5"/>
<path d="M163.42 52.1801H160.778V30.1604H167.823C169.585 30.1604 171.094 30.8277 172.352 32.0287C173.61 33.2298 174.239 34.8312 174.239 36.6996C174.239 38.5679 173.61 40.1693 172.352 41.3704C171.094 42.5715 169.585 43.2388 167.823 43.2388H163.42V52.1801ZM163.42 40.5697H167.823C168.956 40.5697 169.836 40.1693 170.465 39.3686C171.094 38.5679 171.472 37.6337 171.472 36.6996C171.472 35.7654 171.094 34.8312 170.465 34.0305C169.836 33.2298 168.956 32.8295 167.823 32.8295H163.42V40.5697Z" fill="#5754D5"/>
<path d="M178.642 52.1801H176V30.1604H178.642V52.1801Z" fill="#5754D5"/>
<path d="M185.561 52.5803C184.051 52.5803 182.793 52.18 181.787 51.2458C180.781 50.3117 180.277 49.1106 180.277 47.6426C180.277 46.0412 180.906 44.7066 182.039 43.7725C183.171 42.8383 184.681 42.4379 186.442 42.4379C187.951 42.4379 189.335 42.7048 190.216 43.3721V42.9717C190.216 41.9041 189.839 40.97 189.21 40.3027C188.455 39.6354 187.574 39.3685 186.568 39.3685C185.813 39.3685 185.058 39.502 184.429 39.9023C183.8 40.3027 183.422 40.8365 183.171 41.5038L180.781 40.4361C181.158 39.502 181.787 38.7013 182.668 37.9005C183.674 37.0998 184.932 36.6995 186.442 36.6995C188.203 36.6995 189.713 37.2333 190.971 38.4343C192.103 39.502 192.732 41.1034 192.732 43.2387V52.3134H190.216V50.1782H190.09C189.084 51.7796 187.574 52.5803 185.561 52.5803ZM185.939 50.0447C187.071 50.0447 188.077 49.6444 188.958 48.7102C189.839 47.9095 190.342 46.8419 190.342 45.6408C189.587 44.9735 188.455 44.7066 186.945 44.7066C185.687 44.7066 184.681 44.9735 184.052 45.6408C183.422 46.1746 183.045 46.9753 183.045 47.776C183.045 48.4433 183.297 49.1106 183.926 49.5109C184.555 49.7778 185.184 50.0447 185.939 50.0447Z" fill="#5754D5"/>
<path d="M198.645 58.7191H195.877L199.148 51.1123L193.361 37.0999H196.255L200.406 47.9095L204.558 37.0999H207.451L198.645 58.7191Z" fill="#5754D5"/>
<path d="M15.9775 40.8367C15.9775 33.8972 15.9775 26.8242 15.9775 19.8846C15.9775 19.0839 16.1033 18.2832 16.7324 17.616C16.984 17.349 17.1098 17.349 17.3614 17.616C21.7645 22.4202 26.2935 27.2245 30.6967 32.0288C33.5902 35.0982 36.4837 38.3011 39.3772 41.3705C39.6288 41.6374 39.6288 41.7709 39.3772 42.1712C32.2063 49.3777 25.1613 56.851 18.1162 64.3244C17.7388 64.7247 17.3614 64.7247 16.984 64.4578C16.2291 63.7906 15.9775 62.9898 15.9775 62.0557C15.9775 57.9186 15.9775 53.7816 15.9775 49.6446C15.9775 46.7086 15.9775 43.7727 15.9775 40.8367Z" fill="#5754D5"/>
<path d="M18.4932 16.6816C18.9964 16.6816 19.3738 16.8151 19.7512 17.082C28.8091 22.4201 37.8671 27.7582 46.7992 33.2298C47.1766 33.4967 47.1766 33.6301 46.925 33.897C44.9121 36.0323 42.8992 38.1675 40.8864 40.3028C40.6348 40.5697 40.509 40.7031 40.2573 40.3028C33.0865 32.5625 25.9156 24.8223 18.619 16.9485C18.619 16.9485 18.619 16.8151 18.4932 16.6816Z" fill="#5754D5"/>
<path d="M20.5068 64.1907C27.0487 57.1177 33.5905 50.1782 40.1324 43.1052C40.5098 42.7048 40.7614 42.7048 41.1388 43.1052C42.7743 44.9735 44.5355 46.7084 46.171 48.5768C46.4226 48.8437 46.5484 48.9771 46.0452 49.244C37.6163 54.1818 29.1874 58.9861 20.7584 63.9238C20.7584 64.0573 20.6326 64.1907 20.5068 64.1907Z" fill="#5754D5"/>
<path d="M57.9958 40.9699C57.9958 41.7707 57.6184 42.3045 57.1151 42.7048C56.7377 42.9717 56.2345 43.2386 55.8571 43.5055C53.341 44.9735 50.6991 46.4415 48.183 48.0429C47.8056 48.3098 47.6798 48.1764 47.3024 47.9095C45.5411 45.9077 43.6541 43.9059 41.8928 42.0376C41.6412 41.7707 41.6412 41.6372 41.8928 41.3703C44.0315 39.1016 46.1702 36.8329 48.3088 34.6977C48.5604 34.4308 48.6862 34.4308 49.0637 34.5642C51.5797 36.0322 54.0958 37.5002 56.6119 39.1016C57.3667 39.3685 57.87 40.0358 57.9958 40.9699Z" fill="#5754D5"/>
</g>
<defs>
<clipPath id="clip0">
<rect width="215" height="76.4683" fill="white"/>
</clipPath>
</defs>
</svg>
