<svg width="40" height="40" viewBox="0 0 40 40" fill="none" xmlns="http://www.w3.org/2000/svg">
<path d="M20.0033 7.73327C23.7588 7.73327 26.2921 9.35558 27.7367 10.7112L33.3812 5.2C29.9144 1.97769 25.4033 0 20.0033 0C12.1811 0 5.42557 4.48884 2.13672 11.0221L8.60326 16.0444C10.2256 11.2221 14.7144 7.73327 20.0033 7.73327Z" fill="#EA4335"/>
<path d="M39.2 20.4444C39.2 18.8 39.0667 17.6 38.7777 16.3556H20V23.7777H31.0223C30.8 25.6221 29.6 28.4 26.9333 30.2666L33.2444 35.1556C37.0223 31.6666 39.2 26.5333 39.2 20.4444Z" fill="#4285F4"/>
<path d="M8.6223 23.9335C8.2 22.689 7.95557 21.3556 7.95557 19.9779C7.95557 18.6 8.2 17.2667 8.6 16.0223L2.13327 11C0.777884 13.7112 0 16.7556 0 19.9779C0 23.2 0.777884 26.2446 2.13327 28.9556L8.6223 23.9335Z" fill="#FBBC05"/>
<path d="M20.0026 40C25.4026 40 29.9359 38.2223 33.2471 35.1556L26.9359 30.2667C25.2471 31.4444 22.9803 32.2667 20.0026 32.2667C14.7138 32.2667 10.2249 28.7777 8.62493 23.9556L2.1582 28.9777C5.44705 35.5111 12.1803 40 20.0026 40Z" fill="#34A853"/>
</svg>
