<svg width="18" height="22" viewBox="0 0 18 22" fill="none" xmlns="http://www.w3.org/2000/svg">
<path d="M12.8492 8.34287C12.8492 5.96175 10.9111 4.02441 8.52956 4.02441C6.14807 4.02441 4.20996 5.96175 4.20996 8.34287C4.20996 10.7248 6.14807 12.6629 8.52956 12.6629C10.9111 12.6629 12.8492 10.7248 12.8492 8.34287ZM5.51405 8.34287C5.51405 6.68092 6.86685 5.3285 8.52956 5.3285C10.1923 5.3285 11.5447 6.68054 11.5447 8.34287C11.5447 10.0056 10.1923 11.3584 8.52956 11.3584C6.86685 11.3584 5.51405 10.0056 5.51405 8.34287Z" fill="#010101" fill-opacity="0.5"/>
<path d="M8.52913 22L8.99899 21.5125C9.32769 21.1704 17.0602 13.0927 17.0602 8.53105C17.0602 3.82712 13.2331 0 8.52951 0C3.82635 0 0 3.82712 0 8.53105C0 13.0927 7.73095 21.1704 8.06004 21.5121L8.52913 22ZM8.52913 1.30486C12.5139 1.30486 15.7557 4.54667 15.7557 8.53143C15.7557 11.6597 10.9145 17.5346 8.52913 20.1102C6.14418 17.5354 1.30371 11.6624 1.30371 8.53143C1.30371 4.54667 4.54514 1.30486 8.52913 1.30486Z" fill="#010101" fill-opacity="0.5"/>
</svg>
