<svg width="202" height="36" viewBox="0 0 202 36" fill="none" xmlns="http://www.w3.org/2000/svg">
<path d="M10.944 35H18.72V7.736H29.472V1.4H0.192V7.736H10.944V35ZM57.0724 35H65.2324L50.2084 1.4H42.5284L27.5524 35H35.5204L38.4964 27.8H54.0964L57.0724 35ZM40.9924 21.896L46.3204 9.032L51.6484 21.896H40.9924ZM97.128 35L84.6 17.624L96.312 1.4H87.912L80.328 12.296L72.6 1.4H63.768L75.576 17.912L63.144 35H72.072L80.04 23.336L88.152 35H97.128ZM100.172 35H107.948V1.4H100.172V35ZM152.219 27.512C150.251 28.568 148.283 28.952 146.171 28.952C139.739 28.952 135.275 24.488 135.275 18.2C135.275 11.816 139.739 7.448 146.267 7.448C149.675 7.448 152.507 8.648 154.955 11.24L159.947 6.632C156.683 2.84 151.787 0.823999 145.883 0.823999C135.179 0.823999 127.403 8.072 127.403 18.2C127.403 28.328 135.179 35.576 145.739 35.576C150.539 35.576 155.627 34.088 159.323 31.304V17.672H152.219V27.512ZM182.819 35.576C193.379 35.576 201.203 28.232 201.203 18.2C201.203 8.168 193.379 0.823999 182.819 0.823999C172.211 0.823999 164.435 8.216 164.435 18.2C164.435 28.184 172.211 35.576 182.819 35.576ZM182.819 28.952C176.819 28.952 172.307 24.584 172.307 18.2C172.307 11.816 176.819 7.448 182.819 7.448C188.819 7.448 193.331 11.816 193.331 18.2C193.331 24.584 188.819 28.952 182.819 28.952Z" fill="#F42B56"/>
</svg>
